<?xml version="1.0" encoding="UTF-8" standalone="no"?>
<!-- Created with Inkscape (http://www.inkscape.org/) -->

<svg
   width="297mm"
   height="210mm"
   viewBox="0 0 297 210"
   version="1.1"
   id="svg1"
   sodipodi:docname="logo-full-color-wheel-gradient-white-background.svg"
   inkscape:version="1.3.2 (091e20e, 2023-11-25, custom)"
   xml:space="preserve"
   inkscape:export-filename="logo-full-color-wheel-gradient-white-background.png"
   inkscape:export-xdpi="164.2"
   inkscape:export-ydpi="164.2"
   xmlns:inkscape="http://www.inkscape.org/namespaces/inkscape"
   xmlns:sodipodi="http://sodipodi.sourceforge.net/DTD/sodipodi-0.dtd"
   xmlns:xlink="http://www.w3.org/1999/xlink"
   xmlns="http://www.w3.org/2000/svg"
   xmlns:svg="http://www.w3.org/2000/svg"><sodipodi:namedview
     id="namedview1"
     pagecolor="#ffffff"
     bordercolor="#000000"
     borderopacity="0.25"
     inkscape:showpageshadow="2"
     inkscape:pageopacity="0.0"
     inkscape:pagecheckerboard="0"
     inkscape:deskcolor="#d1d1d1"
     inkscape:document-units="mm"
     inkscape:zoom="0.5"
     inkscape:cx="419"
     inkscape:cy="287"
     inkscape:window-width="1920"
     inkscape:window-height="1017"
     inkscape:window-x="-8"
     inkscape:window-y="-8"
     inkscape:window-maximized="1"
     inkscape:current-layer="g1" /><defs
     id="defs1"><linearGradient
       id="linearGradient255"
       inkscape:collect="always"><stop
         style="stop-color:#ffffff;stop-opacity:1;"
         offset="0.50157732"
         id="stop256" /><stop
         style="stop-color:#ffffff;stop-opacity:0;"
         offset="1"
         id="stop257" /></linearGradient><linearGradient
       id="linearGradient254"
       inkscape:collect="always"><stop
         style="stop-color:#ffffff;stop-opacity:1;"
         offset="0.24921136"
         id="stop254" /><stop
         style="stop-color:#ffffff;stop-opacity:0;"
         offset="1"
         id="stop255" /></linearGradient><linearGradient
       id="linearGradient252"
       inkscape:collect="always"><stop
         style="stop-color:#ff00ff;stop-opacity:1;"
         offset="0"
         id="stop252" /><stop
         style="stop-color:#ff0000;stop-opacity:1;"
         offset="0.81999999"
         id="stop253" /></linearGradient><linearGradient
       id="linearGradient250"
       inkscape:collect="always"><stop
         style="stop-color:#0000ff;stop-opacity:1;"
         offset="0"
         id="stop250" /><stop
         style="stop-color:#ff00ff;stop-opacity:1;"
         offset="0.81999999"
         id="stop251" /></linearGradient><linearGradient
       id="linearGradient248"
       inkscape:collect="always"><stop
         style="stop-color:#00ffff;stop-opacity:1;"
         offset="0"
         id="stop248" /><stop
         style="stop-color:#0000ff;stop-opacity:1;"
         offset="0.81999999"
         id="stop249" /></linearGradient><linearGradient
       id="linearGradient246"
       inkscape:collect="always"><stop
         style="stop-color:#00ff00;stop-opacity:1;"
         offset="0"
         id="stop246" /><stop
         style="stop-color:#00ffff;stop-opacity:1;"
         offset="0.81999999"
         id="stop247" /></linearGradient><linearGradient
       id="linearGradient244"
       inkscape:collect="always"><stop
         style="stop-color:#ffff00;stop-opacity:1;"
         offset="0"
         id="stop244" /><stop
         style="stop-color:#00ff00;stop-opacity:1;"
         offset="0.81999999"
         id="stop245" /></linearGradient><linearGradient
       id="linearGradient242"
       inkscape:collect="always"><stop
         style="stop-color:#ff0000;stop-opacity:1;"
         offset="0"
         id="stop242" /><stop
         style="stop-color:#ffff00;stop-opacity:1;"
         offset="0.81999999"
         id="stop243" /></linearGradient><linearGradient
       id="linearGradient3"><stop
         style="stop-color:#2020aa;stop-opacity:1;"
         offset="0"
         id="stop6" /><stop
         style="stop-color:#2020aa;stop-opacity:0;"
         offset="1"
         id="stop7" /></linearGradient><linearGradient
       id="linearGradient3-1"><stop
         style="stop-color:#00ff00;stop-opacity:1;"
         offset="0"
         id="stop4" /><stop
         style="stop-color:#2020ff;stop-opacity:1;"
         offset="1"
         id="stop5" /></linearGradient><linearGradient
       id="linearGradient2"
       inkscape:swatch="gradient"><stop
         style="stop-color:#2076d2;stop-opacity:1;"
         offset="0"
         id="stop2" /><stop
         style="stop-color:#ff2000;stop-opacity:1;"
         offset="1"
         id="stop3" /></linearGradient><inkscape:path-effect
       effect="vonkoch"
       id="path-effect39"
       is_visible="true"
       lpeversion="1"
       ref_path="m 221.99727,86.944209 h 8.35897"
       generator="m 228.80315,84.479839 4.81625,2.363481 m 1.37781,4.536027 -4.17907,-5.162163"
       similar_only="false"
       nbgenerations="2"
       drawall="true"
       maxComplexity="1000"
       generator-nodetypes="cccc" /><inkscape:path-effect
       effect="vonkoch"
       id="path-effect38"
       is_visible="true"
       lpeversion="1"
       ref_path="m 229.42057,87.74663 21.72774,-0.499175"
       generator="m 221.99727,101.80982 h 9.71701 m 9.71702,0 h 9.71701"
       similar_only="false"
       nbgenerations="5"
       drawall="true"
       maxComplexity="1000"
       ref_path-nodetypes="cc" /><linearGradient
       id="a"><stop
         offset="0"
         stop-color="#ffffff"
         id="stop1" /><stop
         offset="1"
         stop-color="#ffffff"
         stop-opacity="0"
         id="stop2-4" /></linearGradient><radialGradient
       xlink:href="#a"
       id="b"
       cx="132.29167"
       cy="164.70831"
       fx="132.29167"
       fy="164.70831"
       r="132.29167"
       gradientUnits="userSpaceOnUse"
       gradientTransform="translate(-1.9130469e-6)" /><linearGradient
       inkscape:collect="always"
       xlink:href="#linearGradient242"
       id="linearGradient243"
       x1="238.03703"
       y1="72.67025"
       x2="248.83324"
       y2="85.263657"
       gradientUnits="userSpaceOnUse" /><linearGradient
       inkscape:collect="always"
       xlink:href="#linearGradient244"
       id="linearGradient245"
       x1="249.97598"
       y1="81.188034"
       x2="244.64415"
       y2="96.946144"
       gradientUnits="userSpaceOnUse" /><linearGradient
       inkscape:collect="always"
       xlink:href="#linearGradient246"
       id="linearGradient247"
       x1="248.55453"
       y1="95.847"
       x2="234.01764"
       y2="101.96948"
       gradientUnits="userSpaceOnUse" /><linearGradient
       inkscape:collect="always"
       xlink:href="#linearGradient248"
       id="linearGradient249"
       x1="235.14632"
       y1="101.96179"
       x2="224.35011"
       y2="89.368385"
       gradientUnits="userSpaceOnUse" /><linearGradient
       inkscape:collect="always"
       xlink:href="#linearGradient250"
       id="linearGradient251"
       x1="223.16046"
       y1="93.344269"
       x2="228.98593"
       y2="77.642395"
       gradientUnits="userSpaceOnUse" /><linearGradient
       inkscape:collect="always"
       xlink:href="#linearGradient252"
       id="linearGradient253"
       x1="224.77254"
       y1="78.646576"
       x2="239.30943"
       y2="72.524086"
       gradientUnits="userSpaceOnUse" /><radialGradient
       inkscape:collect="always"
       xlink:href="#linearGradient254"
       id="radialGradient255"
       cx="236.47733"
       cy="87.025101"
       fx="236.47733"
       fy="87.025101"
       r="16.007292"
       gradientUnits="userSpaceOnUse" /><radialGradient
       inkscape:collect="always"
       xlink:href="#linearGradient255"
       id="radialGradient257"
       cx="233.61944"
       cy="82.085693"
       fx="233.61944"
       fy="82.085693"
       r="1.538945"
       gradientTransform="matrix(1,0,0,1.0049872,0,-0.40937635)"
       gradientUnits="userSpaceOnUse" /></defs><g
     inkscape:label="Layer 1"
     inkscape:groupmode="layer"
     id="layer1"><g
       id="g37"
       transform="translate(3.0267067,11.695046)"><g
         id="g1"><rect
           style="opacity:1;fill:#e7e7e7;fill-opacity:1;stroke:none;stroke-width:0.0933199;stroke-dasharray:none;stroke-opacity:1"
           id="rect257"
           width="297.18121"
           height="127.22028"
           x="-3.4042077"
           y="30.433949" /><g
           id="g3"
           transform="matrix(1.645284,0,0,1.645284,-170.29391,-44.494728)"><g
             id="g257"><g
               id="g253"><path
                 style="fill:url(#linearGradient243);fill-opacity:1;stroke:none;stroke-width:0.264583px;stroke-linecap:butt;stroke-linejoin:miter;stroke-opacity:1"
                 d="m 245.29842,85.263656 3.53481,-6.122477 -1.52361,-1.957417 -1.95274,-1.672103 -2.32691,-1.508403 -2.84141,-1.028988 -2.15152,-0.304019 z"
                 id="path242" /><path
                 style="fill:url(#linearGradient245);fill-opacity:1;stroke:none;stroke-width:0.264583px;stroke-linecap:butt;stroke-linejoin:miter;stroke-opacity:1"
                 d="m 242.70311,93.773279 7.06963,-3e-6 0.93337,-2.298193 0.47171,-2.527174 0.14286,-2.769365 -0.52958,-2.975227 -0.81247,-2.015281 z"
                 id="path242-9" /><path
                 style="fill:url(#linearGradient247);fill-opacity:1;stroke:none;stroke-width:0.264583px;stroke-linecap:butt;stroke-linejoin:miter;stroke-opacity:1"
                 d="m 234.01764,95.847001 3.53482,6.122479 2.45698,-0.34078 2.42445,-0.85507 2.46977,-1.260962 2.31183,-1.946243 1.33905,-1.71126 z"
                 id="path242-9-8" /><path
                 style="fill:url(#linearGradient249);fill-opacity:1;stroke:none;stroke-width:0.264583px;stroke-linecap:butt;stroke-linejoin:miter;stroke-opacity:1"
                 d="m 227.88494,89.368382 -3.53482,6.12248 1.52361,1.957418 1.95274,1.6721 2.32691,1.5084 2.84142,1.02899 2.15152,0.30402 z"
                 id="path242-9-4" /><path
                 style="fill:url(#linearGradient251);fill-opacity:1;stroke:none;stroke-width:0.264583px;stroke-linecap:butt;stroke-linejoin:miter;stroke-opacity:1"
                 d="m 230.4246,80.759024 -7.06964,-4e-6 -0.93337,2.298194 -0.47171,2.527173 -0.14286,2.769363 0.52958,2.975237 0.81247,2.015281 z"
                 id="path242-9-4-9" /><path
                 style="fill:url(#linearGradient253);fill-opacity:1;stroke:none;stroke-width:0.264583px;stroke-linecap:butt;stroke-linejoin:miter;stroke-opacity:1"
                 d="m 239.30944,78.646576 -3.53482,-6.12249 -2.45697,0.340775 -2.42446,0.855074 -2.46976,1.260961 -2.31185,1.946248 -1.33905,1.71126 z"
                 id="path242-9-4-9-5" /></g><circle
               style="opacity:1;fill:url(#radialGradient255);fill-opacity:1;stroke:none;stroke-width:0.1;stroke-dasharray:none;stroke-opacity:1"
               id="path253"
               cx="236.47733"
               cy="87.025101"
               r="16.007292" /></g><path
             id="path2-1-1"
             style="fill:#000000;fill-opacity:1;fill-rule:nonzero;stroke:none;stroke-width:0.164807"
             inkscape:transform-center-x="3.5566732"
             inkscape:transform-center-y="-2.836595"
             d="m 236.56642,63.903957 -1.25264,0.01344 -2.53162,0.171566 -1.26556,0.15813 -1.26607,0.197404 -2.5182,0.501261 -2.50475,0.685746 -2.50528,0.843876 -1.2392,0.487826 -1.2392,0.51418 -2.47892,1.160136 -2.46548,1.305347 -2.45256,1.463477 -1.22577,0.791166 -1.21336,0.804085 -2.43913,1.753381 -2.42569,1.872237 -2.42621,2.004013 -1.19992,1.054716 -1.19941,1.08107 -2.41278,2.254643 -2.39985,2.386418 -2.38642,2.491837 -1.19941,1.278992 h 3.63854 l 1.93838,-2.004012 2.88717,-2.834452 1.92494,-1.806608 0.96273,-0.856796 1.1865,-1.028361 2.34662,-1.951302 2.34715,-1.819527 2.34662,-1.687752 1.17357,-0.77773 1.18649,-0.751376 2.34715,-1.397847 2.34663,-1.252637 2.34714,-1.09399 1.17305,-0.487826 1.17358,-0.46147 2.36006,-0.791166 2.34663,-0.645956 2.34714,-0.474906 1.17357,-0.171049 1.17306,-0.145211 2.34714,-0.15813 1.17357,-0.01344 1.18649,0.01344 2.34663,0.15813 1.17357,0.15813 1.17357,0.184485 2.34663,0.51418 2.34714,0.712102 2.35955,0.909505 1.17357,0.540535 1.17357,0.567408 2.34663,1.331184 2.34714,1.529623 2.36006,1.753381 1.17306,0.962732 1.17357,1.002006 2.34715,2.201933 2.34662,2.425692 2.34715,2.649967 1.18649,1.424203 0.1974,0.25063 0.21136,0.26355 -1.05472,0.896586 -1.0418,0.856795 -1.14721,0.922942 -2.29392,1.780253 -2.281,1.674316 -2.28099,1.542542 -1.13379,0.72502 -1.12086,0.698665 -2.25464,1.305347 -2.24121,1.160653 -2.22829,1.028361 -1.12034,0.448034 -0.54054,0.21084 -0.55397,0.197921 0.73846,-0.738456 1.04128,-1.265556 0.92294,-1.371493 0.81752,-1.476395 0.64596,-1.555978 0.51418,-1.595251 0.34313,-1.700672 0.17105,-1.740462 0.0134,-0.88315 -0.0134,-0.896586 -0.17105,-1.740462 -0.34313,-1.661398 -0.51418,-1.635042 -0.64596,-1.542542 -0.81752,-1.463476 -0.92294,-1.370976 -1.04128,-1.278992 -1.18649,-1.18649 -1.26607,-1.054716 -1.37098,-0.910022 -1.47691,-0.804086 -1.54254,-0.659391 -1.60817,-0.500745 -1.68776,-0.343131 -1.74046,-0.171049 -0.88315,-0.01344 -0.89659,0.01344 -1.72754,0.171049 -1.67431,0.343131 -1.63505,0.500745 -1.54254,0.659391 -1.45004,0.804086 -1.37149,0.910022 -1.29191,1.054716 -1.16014,1.18649 -1.0418,1.278992 -0.94929,1.370976 -0.79117,1.463476 -0.64595,1.542542 -0.51418,1.635042 -0.34262,1.661398 -0.17156,1.740462 -0.0129,0.896586 0.0129,0.88315 0.17156,1.740462 0.34262,1.700672 0.51418,1.595251 0.64595,1.555978 0.79117,1.476395 0.94929,1.371493 1.0418,1.265556 1.16014,1.173565 1.29191,1.05472 1.37149,0.92294 1.45004,0.79117 1.54254,0.65939 1.63505,0.50074 1.67431,0.34262 1.37149,0.14521 0.59325,0.0398 0.60616,0.0129 h 0.0527 0.0527 l 0.60669,-0.0129 0.59324,-0.0398 0.87023,-0.0264 1.71411,-0.13177 0.87023,-0.11886 1.17306,-0.17105 2.34714,-0.4749 2.34663,-0.63304 2.36006,-0.77773 1.17357,-0.46147 1.17357,-0.47439 2.34663,-1.08159 2.34714,-1.22576 2.36006,-1.345137 1.17306,-0.737939 1.17357,-0.738457 2.34663,-1.608687 2.34714,-1.714107 2.34663,-1.819527 1.18701,-0.949297 1.01492,-0.843359 1.02836,-0.870231 1.00201,-0.857312 1.002,-0.88315 -0.817,-1.068152 -0.81752,-1.028361 -0.18449,-0.224276 -0.185,-0.237195 -1.19941,-1.45004 -2.42621,-2.742469 -2.43912,-2.518192 -2.45205,-2.280998 -1.22628,-1.054716 -1.22628,-1.015442 -2.47892,-1.845882 -2.49184,-1.621606 -2.51819,-1.410767 -1.25264,-0.6196 -1.26555,-0.580327 -2.53163,-0.975651 -2.54455,-0.764294 -2.54455,-0.566891 -1.26555,-0.19792 -1.25264,-0.171566 -2.49184,-0.171566 -1.2392,-0.01292 -0.0527,-0.01344 z m -0.91002,8.781376 3.41478,5.945891 h -14.23944 l 0.46147,-0.619601 1.05471,-1.160136 1.18701,-1.054716 1.27848,-0.896586 1.37149,-0.77773 1.48983,-0.620117 1.54254,-0.448035 1.60869,-0.276986 z m 2.51819,0.06563 0.81752,0.10542 1.58233,0.369487 1.52911,0.51418 1.43712,0.68523 1.34514,0.843876 1.2392,0.962732 1.14722,1.09399 1.002,1.199927 0.44804,0.645955 -3.4277,5.946407 z m -14.66112,8.003129 v 0.02635 h 6.84299 l -7.11997,12.353768 -0.31626,-0.751375 -0.47491,-1.503267 -0.30283,-1.542542 -0.14521,-1.581816 0.0393,-1.595251 0.19792,-1.555977 0.3824,-1.568897 0.55398,-1.529622 z m 26.40872,0.619601 0.28991,0.67231 0.46147,1.410767 0.30334,1.489831 0.17157,1.516187 v 0.791166 0.857312 l -0.21136,1.700671 -0.38189,1.635043 -0.56741,1.542541 -0.34261,0.751376 v -0.02636 h -6.84248 z m -22.04464,8.029484 7.11946,12.340843 -0.81701,-0.10542 -1.60868,-0.34313 -1.50327,-0.54053 -1.43712,-0.68523 -1.34462,-0.817522 -1.25264,-0.962732 -1.13378,-1.09399 -1.01544,-1.226282 -0.44804,-0.645955 z m 20.46231,6.460587 -0.47439,0.645956 -1.06815,1.160136 -1.18649,1.028361 -1.26556,0.896586 -1.38441,0.777727 -1.46347,0.6196 -1.54255,0.44855 -1.63504,0.30334 -0.81752,0.0656 -3.42821,-5.932966 z" /><path
             style="fill:url(#radialGradient257);fill-opacity:1;fill-rule:nonzero;stroke:none;stroke-width:0.191413"
             d="m 235.15838,82.085693 -0.0153,0.306261 -0.22968,0.566582 -0.42877,0.413452 -0.55128,0.229695 -0.30626,0.03063 -0.32156,-0.03063 -0.55128,-0.229695 -0.41344,-0.413452 -0.24502,-0.566582 -0.0153,-0.306261 0.0153,-0.321574 0.24502,-0.551268 0.41344,-0.413452 0.55128,-0.229696 0.32156,-0.03063 0.30626,0.03063 0.55128,0.229696 0.42877,0.413452 0.22968,0.551268 z"
             id="path9-3" /></g><g
           id="g4"
           transform="matrix(1.227087,0,0,1.227087,-17.155166,-20.839098)"><g
             id="g2"
             transform="matrix(0.61677902,0,0,0.61677902,11.154217,36.095176)"><path
               id="path39"
               style="color:#000000;fill:#000000;stroke-linejoin:bevel;-inkscape-stroke:none"
               d="m 29.459166,49.20873 c -1.067652,0 -2.188311,0.151952 -3.359485,0.451652 l -0.0062,0.0016 c -0.73046,0.215722 -1.451927,0.512288 -2.163693,0.885218 h -0.0021 c -0.494274,0.264036 -0.943493,0.544315 -1.351855,0.845426 -4.53e-4,2.72e-4 -10e-4,0.0018 -0.0016,0.0021 -0.294592,0.17715 -0.727251,0.56503 -1.346171,1.18184 l -0.0078,0.0078 c -0.370645,0.423593 -0.679991,0.805408 -0.929659,1.142566 l -0.0057,0.0057 c -1.261438,1.885767 -1.896525,3.888345 -1.896525,5.993949 v 0.183968 c 0,2.819386 1.145652,5.076282 3.412194,6.718453 h 0.0021 c 0.673804,0.478251 1.367015,0.88614 2.07791,1.224732 1.917272,0.940558 4.816256,1.855496 8.706962,2.753837 0.621674,0.172382 1.140391,0.355285 1.548743,0.543119 l 0.0021,0.0021 c 0.463748,0.20612 0.894703,0.454349 1.289327,0.746208 l 0.02325,0.0155 c 0.201424,0.09986 0.612315,0.437378 1.16582,0.99012 1.257818,1.448527 1.88309,3.147373 1.88309,5.114934 v 0.05116 c 0,0.950084 -0.144879,1.892805 -0.43925,2.827735 -0.343977,1.080578 -0.929315,2.09689 -1.755965,3.046842 -0.539794,0.539583 -0.975996,0.911187 -1.289327,1.109493 l -0.0016,0.0021 c -1.734197,1.160981 -3.616691,1.740462 -5.660636,1.740462 -2.076822,0 -3.983195,-0.603517 -5.734017,-1.816426 l -0.0078,-0.0062 c -0.29445,-0.17942 -0.748451,-0.562399 -1.337903,-1.134815 l -0.0021,-0.0021 c -9.25e-4,-9e-4 -0.0011,-6.5e-4 -0.0021,-0.0016 -0.61047,-0.644186 -1.062232,-1.190433 -1.349789,-1.632975 v -0.0021 c -0.523042,-0.78144 -0.948409,-1.572521 -1.278991,-2.370914 l -0.144694,-0.09767 c -0.03623,0 -0.04377,0.0044 -0.05684,0.0078 -0.01308,0.0034 -0.02636,0.0066 -0.04082,0.01137 -0.02892,0.0095 -0.0649,0.0244 -0.109554,0.04134 -0.08932,0.03386 -0.213509,0.08218 -0.374654,0.148311 -0.322288,0.132244 -0.790943,0.330416 -1.406116,0.593762 l -0.08423,0.203089 0.263549,0.660424 0.0062,0.01137 c 0.353752,0.707513 0.681041,1.286033 0.985986,1.732711 l -0.0036,-0.0098 c 0.341441,0.576994 0.890564,1.294841 1.650028,2.160074 l 0.0083,0.0078 c 0.599985,0.583085 1.067481,1.005834 1.408183,1.275374 l 0.0016,0.0021 c 2.27542,1.741153 4.818858,2.616895 7.609872,2.616895 1.690075,0 3.326992,-0.329795 4.909778,-0.988054 h 0.0021 c 2.347921,-1.014164 4.110121,-2.577291 5.267895,-4.681368 l 0.0015,-0.0041 c 0.906762,-1.758171 1.365292,-3.526937 1.365292,-5.293217 v -0.341581 c 0,-1.48116 -0.341535,-2.955638 -1.017509,-4.414201 l -0.0021,-0.0057 c -0.286045,-0.569972 -0.624382,-1.105209 -1.017509,-1.60352 -0.162889,-0.243905 -0.533957,-0.637112 -1.14825,-1.232483 l -0.0098,-0.0078 C 36.94314,69.984544 36.233358,69.505232 35.568183,69.181884 34.95961,68.857162 34.228482,68.573139 33.378652,68.324572 l -0.0078,-0.0021 c -1.948915,-0.456171 -3.562913,-0.876135 -4.840015,-1.261938 h -0.0016 C 26.463688,66.412171 24.926086,65.773345 23.92772,65.15246 l -0.0057,-0.0041 c -0.45906,-0.253903 -0.976678,-0.650329 -1.549259,-1.189592 -1.057625,-1.004538 -1.5875,-2.367231 -1.5875,-4.12688 0,-1.794689 0.542073,-3.43551 1.630908,-4.939233 l 0.0016,-0.0021 c 0.35783,-0.478064 0.830694,-0.96098 1.418001,-1.44539 1.623167,-1.24222 3.537302,-1.865002 5.756238,-1.865002 h 0.05271 c 2.129374,0 4.000895,0.661389 5.644617,1.994193 l 0.0036,0.0036 c 0.428401,0.325911 0.869422,0.754761 1.320333,1.292945 l 0.0021,0.0021 c 0.57201,0.659373 0.99582,1.283038 1.267623,1.861385 l 0.208773,0.07596 1.898592,-0.868681 0.07803,-0.211356 C 39.848367,55.25783 39.483013,54.682176 38.97073,53.993968 38.777325,53.683663 38.349183,53.193705 37.6659,52.474681 l -0.0057,-0.0062 C 37.022234,51.866547 36.48295,51.42144 36.029291,51.130579 v 0.0021 c -1.939128,-1.280675 -4.027625,-1.923397 -6.253882,-1.923397 z" /><path
               id="path23"
               style="stroke:none;stroke-width:1.19409;stroke-dasharray:none;stroke-opacity:1"
               d="m 43.188709,62.207732 v 0.821313 l 8.223616,13.245902 v 12.517767 l 0.40356,0.401092 h 1.799976 l 0.403561,-0.401092 V 76.327398 l 8.227936,-13.333526 v -0.78614 h -2.588586 l -6.931482,11.30215 c -2.070012,-3.387174 -3.79964,-6.211784 -4.904428,-8.003941 -0.606789,-0.984316 -1.068653,-1.727208 -1.385309,-2.231922 -0.158327,-0.252355 -0.280685,-0.445323 -0.368387,-0.580658 -0.04385,-0.06767 -0.07802,-0.12066 -0.107373,-0.163521 -0.01468,-0.02143 -0.02897,-0.03969 -0.04443,-0.06047 -0.01546,-0.02078 0.0043,-0.02166 -0.10243,-0.114155 L 45.64709,62.207738 Z"
               sodipodi:nodetypes="ccccccccccccsssssccc" /><path
               id="path34"
               style="color:#000000;fill:#000000;stroke-width:1.19409;stroke-miterlimit:2;-inkscape-stroke:none"
               d="M 65.792392,62.20851 65.3913,62.612069 v 25.978408 l 0.0142,0.06356 c 0.04135,0.190458 0.208788,0.386337 0.35913,0.461565 0.150343,0.07523 0.266251,0.07899 0.363452,0.07899 h 1.584004 L 68.02925,88.730551 V 66.397759 l 12.150614,20.809877 c 0.303753,0.538233 0.543209,0.951599 0.718262,1.240917 0.08816,0.145708 0.160151,0.26141 0.221527,0.352343 0.03069,0.04547 0.05952,0.08291 0.09132,0.123413 0.0318,0.0405 0.03505,0.07331 0.174629,0.167842 L 81.5374,89.19458 h 2.507133 l 0.403561,-0.401089 V 62.612069 L 84.044534,62.20851 H 82.26492 l -0.403561,0.403559 V 84.978183 L 70.22168,65.063666 l -0.0025,-0.0025 C 69.767645,64.280219 69.41347,63.674277 69.155353,63.243904 68.896845,62.812879 68.79442,62.621872 68.628381,62.423209 L 68.451283,62.20847 Z" /><path
               id="path33"
               style="color:#000000;fill:#000000;stroke-width:1.19409;stroke-miterlimit:2;-inkscape-stroke:none"
               d="m 100.42575,62.207734 v 0 c -2.928237,0.07609 -5.673646,1.344788 -7.931747,3.711024 l -0.0096,0.0093 -0.0096,0.0117 c -2.411472,2.773735 -3.633278,6.030129 -3.633278,9.673717 v 0.177098 c 0,1.787665 0.332367,3.576068 0.988536,5.350564 v 0.0025 c 0.604069,1.604205 1.55321,3.110111 2.831092,4.510123 l 0.0096,0.0093 0.0096,0.0074 c 2.307536,2.32067 4.990578,3.524054 7.943477,3.524054 1.93333,0 3.77646,-0.528004 5.48816,-1.558086 1.16669,-0.641954 2.31309,-1.692186 3.47037,-3.141476 l 0.0119,-0.01666 0.0119,-0.01358 c 0.71627,-1.024143 1.14493,-1.700992 1.32731,-2.251051 l 0.0302,-0.0907 v -0.510929 l -1.66052,-0.783671 h -0.53623 l -0.16599,0.328895 c -0.28744,0.568884 -0.63338,1.14141 -1.02803,1.719142 -0.50364,0.67462 -1.14711,1.332644 -1.94066,1.970903 -1.60855,1.182911 -3.17585,1.741972 -4.74153,1.741972 h -0.51278 c -1.284197,0 -2.614057,-0.397513 -4.009068,-1.234128 l -0.01421,-0.0093 -0.016,-0.0068 C 95.887673,85.10344 95.197667,84.53825 94.358579,83.666826 92.395777,81.38558 91.426903,78.768555 91.426903,75.718419 c 0,-2.763863 0.805881,-5.210724 2.427542,-7.411559 1.994826,-2.383086 4.202858,-3.512329 6.754385,-3.512329 2.73251,0 5.03572,1.240094 7.05243,3.859736 0.45742,0.712605 0.69791,1.110665 0.80711,1.303857 0.0558,0.09864 0.0812,0.148276 0.0907,0.167841 0.005,0.0098 0.004,0.0085 0.0123,0.02591 0.004,0.0087 0.0411,0.07537 0.0419,0.07652 3.7e-4,5.73e-4 0.12558,0.139825 0.12588,0.140074 1.6e-4,1.24e-4 0.16092,0.09311 0.16106,0.09318 1.4e-4,5.7e-5 0.21644,0.04196 0.21659,0.04196 h 0.13082 l 1.6815,-0.781204 v -0.524504 l -0.0395,-0.102429 c -0.28104,-0.734267 -0.87683,-1.628799 -1.79627,-2.799004 l -0.0119,-0.01605 -0.0142,-0.0142 c -2.39884,-2.667305 -5.22672,-4.057815 -8.36986,-4.057815 h -0.0888 z"
               sodipodi:nodetypes="cccccsscccccsccccccccccccssccccscscssccssscccccccscc" /><path
               id="path32"
               style="color:#000000;fill:#000000;stroke-width:1.19409;stroke-miterlimit:2;-inkscape-stroke:none"
               d="m 116.0677,62.207918 -0.37023,0.369004 v 26.248681 l 0.37023,0.368388 h 15.61235 v -2.583649 h -13.39647 v -24.01244 l -0.34494,-0.389984 z" /><path
               id="path31"
               style="color:#000000;fill:#000000;fill-rule:evenodd;stroke-width:1.19409;stroke-miterlimit:2;-inkscape-stroke:none"
               d="m 146.7574,62.208451 -2.36706,6.18e-4 -0.3289,0.540547 c -0.0447,0.106143 -0.0979,0.242667 -0.16537,0.417754 -0.13486,0.350172 -0.31991,0.847933 -0.55536,1.495146 l -8.68517,23.809427 v 0.722582 h 2.47689 l 1.44825,-3.985619 v -0.0025 c 0.35709,-0.978835 0.62842,-1.713998 0.81206,-2.203537 0.0605,-0.161467 0.0964,-0.254292 0.1376,-0.361599 h 12.09446 l 1.70495,4.629216 c 0.15005,0.460868 0.27376,0.825756 0.37086,1.089119 0.0494,0.134214 0.0928,0.242111 0.13266,0.333832 0.0399,0.09172 0.0376,0.137115 0.16599,0.288785 l 0.17711,0.212271 h 2.33929 V 88.47191 l -8.19091,-22.377837 -0.002,-0.0043 c -0.39931,-1.125402 -0.70582,-1.981023 -0.92128,-2.565753 -0.10795,-0.292921 -0.19455,-0.516592 -0.25855,-0.678771 -0.032,-0.08109 -0.0578,-0.147781 -0.082,-0.203015 -0.0242,-0.05524 0.0208,-0.03846 -0.12588,-0.216589 z m -1.19154,3.897379 5.1099,13.948738 h -10.19884 z" /><g
               id="path7"
               transform="matrix(1.1940923,0,0,1.1940923,-28.235252,-18.109977)"><path
                 id="path30"
                 style="color:#000000;fill:#000000;fill-rule:evenodd;stroke-miterlimit:2;-inkscape-stroke:none"
                 d="m 166.83788,67.265662 -0.3359,0.337963 v 21.923727 l 0.3359,0.335897 h 1.49241 l 0.33797,-0.335897 V 81.89836 h 4.56406 l 0.41445,-0.0098 3.32021,5.892663 c 0.32797,0.593483 0.57852,1.042762 0.75189,1.347722 0.0869,0.15291 0.15471,0.269246 0.20515,0.353466 0.0252,0.04211 0.0459,0.07451 0.0661,0.10542 0.0101,0.01546 0.02,0.03053 0.0351,0.05064 0.008,0.01006 0.0158,0.02154 0.0315,0.03927 0.008,0.0089 0.016,0.01881 0.031,0.03307 0.0151,0.01426 0.074,0.05861 0.0744,0.05891 l 0.14553,0.09354 h 1.77959 l 0.26803,-0.566374 -4.52531,-7.929749 c 1.19037,-0.463072 2.23971,-1.153845 3.05253,-2.164209 l 0.006,-0.0057 0.006,-0.0078 c 1.03488,-1.387253 1.57407,-2.863643 1.57407,-4.386813 v -0.427881 c 0,-1.625948 -0.60556,-3.182928 -1.76372,-4.620906 l -0.01,-0.01189 -0.0103,-0.01344 c -1.48107,-1.616712 -3.29266,-2.462898 -5.32629,-2.462898 z m 1.82831,2.165759 h 4.56045 c 1.45155,0 2.63391,0.490804 3.65042,1.512052 0.96771,1.083521 1.42575,2.23046 1.42575,3.521232 v 0.234611 c 0,0.638173 -0.14708,1.317919 -0.44545,2.048971 -1.02662,2.050706 -2.52748,2.997951 -4.74803,2.999817 h -4.44314 z"
                 sodipodi:nodetypes="ccccccccccssscccccccccccsscccsccscsscccc" /></g><path
               id="path40"
               style="color:#000000;fill:#000000;stroke-linejoin:bevel;-inkscape-stroke:none"
               d="m 125.39853,98.263617 v 0 l -0.17002,0.05839 v 0 l -0.0935,0.273885 c 0.0388,0.169253 0.15209,0.49663 0.36328,1.091407 0.21119,0.594791 0.51506,1.425821 0.91003,2.498041 v 0.002 l 12.09952,32.78921 c 0.25413,0.74541 0.45435,1.30641 0.60151,1.68569 0.0738,0.19029 0.13254,0.33553 0.18345,0.44131 0.0255,0.0529 0.0479,0.0937 0.0765,0.13643 0.0143,0.0214 0.029,0.044 0.0584,0.0724 0.0147,0.0141 0.0338,0.0298 0.0646,0.047 0.0154,0.009 0.0336,0.0182 0.0568,0.0253 0.0232,0.007 0.0826,0.0119 0.0837,0.0119 h 2.63498 l 0.19896,-0.0858 0.0253,-0.0274 0.0568,-0.092 3.4277,-9.30279 v -0.002 c 3.52308,-9.5587 6.17922,-16.77761 7.96696,-21.65397 0.89394,-2.43838 1.57061,-4.29081 2.03088,-5.55883 0.23013,-0.63402 0.4057,-1.123038 0.52762,-1.465035 0.12192,-0.341996 0.18242,-0.506135 0.20877,-0.603064 l -0.26148,-0.342098 h -2.24018 l -0.20153,0.08578 -0.0253,0.02739 -0.0548,0.09198 -13.00386,35.564237 -3.14038,-8.55813 -0.006,-0.0181 c -0.0512,-0.17205 -0.24253,-0.70226 -0.6134,-1.72806 -0.37461,-1.03617 -0.91853,-2.53165 -1.63246,-4.48448 -1.42738,-3.90434 -3.53333,-9.64333 -6.31641,-17.2129 l -0.002,-0.006 c -0.40333,-1.15736 -0.71845,-2.036585 -0.94361,-2.636526 -0.11283,-0.300633 -0.2035,-0.530826 -0.27337,-0.695565 -0.0349,-0.08237 -0.0644,-0.149528 -0.0915,-0.203088 -0.0271,-0.05356 -0.0106,-0.07822 -0.12144,-0.167949 l -0.17157,-0.05839 z"
               sodipodi:nodetypes="cccccscccssssccsccccccssscccccccccssccsssccc" /><path
               id="path36"
               style="color:#000000;fill:#000000;fill-opacity:1;stroke:none;stroke-width:1.18961;stroke-miterlimit:2;stroke-opacity:1;-inkscape-stroke:none"
               d="m 161.21953,62.211434 0.007,75.180406 2.64906,0.005 -0.0136,-75.185305 z" /><path
               id="path29"
               style="color:#000000;fill:#000000;stroke-width:1.17858;stroke-linecap:square;stroke-miterlimit:2;-inkscape-stroke:none"
               d="m 179.16747,110.40731 -0.3184,0.001 c -0.76044,0 -1.55264,0.10771 -2.36954,0.3132 l -0.007,0.002 -0.01,0.002 c -0.52271,0.14742 -1.0339,0.35321 -1.5365,0.60895 h -0.002 l -0.002,0.002 c -0.33761,0.17497 -0.64358,0.36429 -0.9256,0.56326 -3.8e-4,2.3e-4 -0.002,-2.4e-4 -0.002,0 -0.28771,0.17042 -0.56916,0.42943 -0.99347,0.84278 l -0.0142,0.0138 -0.0119,0.0139 c -0.2559,0.28337 -0.4713,0.5408 -0.64854,0.77247 l -0.007,0.0119 -0.01,0.0139 c -0.89043,1.29677 -1.35261,2.70071 -1.35261,4.16888 v 0.11846 c 0,1.96513 0.86422,3.61732 2.48615,4.76221 l 0.002,0.002 h 0.002 c 0.47201,0.32753 0.9588,0.6063 1.45813,0.83798 1.33947,0.63944 3.2958,1.23771 5.9016,1.82385 0.40025,0.1089 0.72609,0.22158 0.95954,0.32762 l 0.005,0.002 0.005,0.002 c 0.27991,0.12098 0.53797,0.2642 0.77194,0.43161 l 0.0395,0.0294 0.0463,0.0228 c -1e-4,-4e-5 0.28854,0.21058 0.63434,0.54284 0.7628,0.859 1.13355,1.82857 1.13355,3.00387 v 0.0361 c 0,0.56906 -0.0925,1.13139 -0.27522,1.69521 -0.20627,0.63543 -0.5595,1.236 -1.07245,1.80821 -0.33389,0.32264 -0.60772,0.54627 -0.75343,0.63601 l -0.007,0.005 -0.007,0.005 c -1.08468,0.70824 -2.23575,1.05199 -3.50801,1.05199 -1.2925,0 -2.45793,-0.35759 -3.55182,-1.09769 l -0.016,-0.0119 -0.0166,-0.01 c -0.12471,-0.0734 -0.42251,-0.30814 -0.80465,-0.67028 -0.001,-0.001 -0.001,-6.1e-4 -0.002,-0.002 -0.38698,-0.39781 -0.66967,-0.73709 -0.83241,-0.98164 l -0.002,-0.002 -0.002,-0.005 c -0.333,-0.48467 -0.5991,-0.97088 -0.8065,-1.46076 l -0.15427,-0.3613 h -0.39862 c -0.001,0 -0.0899,0.007 -0.11225,0.012 -0.0224,0.004 -0.0362,0.008 -0.0487,0.0119 -0.0251,0.006 -0.0423,0.0107 -0.058,0.0155 -0.0318,0.0108 -0.0593,0.0195 -0.0931,0.0319 -0.0676,0.025 -0.15421,0.0582 -0.26411,0.1021 -0.21977,0.088 -0.53222,0.21891 -0.94409,0.39074 l -0.53686,0.22302 0.40356,0.97925 0.01,0.0222 c 0.23923,0.46819 0.46375,0.85168 0.68309,1.168 0.25559,0.41538 0.63345,0.89086 1.14774,1.46077 l 0.0136,0.018 0.0191,0.0162 c 0.40652,0.38353 0.72198,0.66411 0.97682,0.86084 l 0.002,0.005 0.005,0.002 c 1.5966,1.1894 3.41625,1.8016 5.38512,1.8016 1.19324,0 2.35601,-0.22862 3.47036,-0.68168 h 0.002 l 0.005,-0.002 c 1.65671,-0.69637 2.93035,-1.79546 3.75731,-3.25577 l 0.005,-0.007 0.005,-0.007 c 0.63472,-1.20184 0.96324,-2.43001 0.96324,-3.66452 v -0.22483 c 0,-1.03658 -0.24429,-2.06853 -0.72319,-3.07421 l -0.005,-0.01 -0.005,-0.01 c -0.20293,-0.39321 -0.4444,-0.75797 -0.71827,-1.10188 -0.17204,-0.24632 -0.41234,-0.47997 -0.82563,-0.87226 l -0.016,-0.0139 -0.0166,-0.0162 c -0.53183,-0.43391 -1.03718,-0.76526 -1.5297,-0.9997 -0.44205,-0.22658 -0.95421,-0.41927 -1.54143,-0.58791 l -0.0166,-0.005 -0.016,-0.005 c -1.29565,-0.29566 -2.36455,-0.56422 -3.20257,-0.81093 h 0.007 c -1.35991,-0.41678 -2.36127,-0.82488 -2.96685,-1.19086 l -0.0119,-0.007 -0.0119,-0.007 c -0.25602,-0.13967 -0.57746,-0.37445 -0.9398,-0.70633 -0.60251,-0.55918 -0.90522,-1.28986 -0.90522,-2.33782 0,-1.0712 0.32482,-2.03107 0.9984,-2.93595 4.7e-4,-6.2e-4 -4.8e-4,-0.001 0,-0.002 0.20787,-0.26888 0.49132,-0.54984 0.85341,-0.84279 0.99852,-0.74303 2.15329,-1.1133 3.54256,-1.1133 h 0.0352 c 1.31959,0 2.44728,0.38799 3.46544,1.19084 l 0.005,0.007 0.007,0.005 c 0.2481,0.18432 0.52165,0.44112 0.80465,0.77006 l 0.002,0.005 0.005,0.002 c 0.36103,0.40524 0.61515,0.77675 0.77442,1.10429 l 0.25176,0.51817 2.34854,-1.04778 -0.25176,-0.52899 c -0.16637,-0.35076 -0.42515,-0.74151 -0.76947,-1.19506 -0.1797,-0.27489 -0.46349,-0.58325 -0.92622,-1.0568 l -0.01,-0.0119 -0.0123,-0.0119 c -0.43968,-0.40488 -0.81957,-0.70984 -1.16379,-0.92455 -1.33635,-0.85855 -2.79298,-1.31038 -4.33488,-1.32911 z" /><path
               id="path17"
               style="color:#000000;fill:#000000;stroke-width:1.19409;stroke-linecap:square;stroke-miterlimit:2;-inkscape-stroke:none"
               d="m 192.33809,110.41216 v 26.6146 l 0.36654,0.369 h 1.83083 l 0.38936,-0.34555 v -26.63805 z" /><path
               id="path16"
               style="color:#000000;fill:#000000;fill-rule:evenodd;stroke-width:1.19409;stroke-linecap:square;stroke-miterlimit:2;-inkscape-stroke:none"
               d="m 212.65678,110.41282 c -3.00039,0 -5.73397,1.21432 -8.1002,3.55429 l -0.0119,0.0123 -0.0119,0.0119 c -2.52935,2.81064 -3.81777,6.11857 -3.81777,9.82551 v 0.10497 c 0,3.76295 1.28079,7.08182 3.80359,9.8471 l 0.007,0.01 0.01,0.007 c 2.35494,2.38121 5.11201,3.6123 8.15821,3.6123 2.35643,0 4.57097,-0.74847 6.58592,-2.20848 l 0.0123,-0.01 1.06074,-0.86019 0.0259,-0.0259 c 0.85986,-0.88338 1.46436,-1.58188 1.83515,-2.15232 1.62807,-2.5042 2.45593,-5.18927 2.45591,-8.00456 v -0.53129 c 0,-2.32335 -0.6114,-4.63238 -1.81232,-6.90371 l -0.002,-0.005 -0.002,-0.005 c -0.39383,-0.71023 -0.98088,-1.5153 -1.76111,-2.43739 l -0.0119,-0.0142 -0.0142,-0.0136 c -1.30781,-1.36109 -4.0288,-3.81345 -8.40997,-3.81345 z m -6.1e-4,2.58674 h 6.1e-4 c 0.55432,0 1.09205,0.049 1.6144,0.14792 1.89458,0.35891 3.58688,1.37518 5.13505,3.09599 1.80646,2.26137 2.69595,4.75909 2.69595,7.57261 v 0.17771 c 0,2.35461 -0.65014,4.53191 -1.96842,6.58099 l -0.007,0.0123 -0.007,0.0136 c -0.23962,0.41644 -0.87589,1.15876 -1.84996,2.09927 -1.79183,1.41792 -3.55003,2.0943 -5.31478,2.0943 h -0.52697 c -0.52994,0 -1.16333,-0.0909 -1.88451,-0.27952 -0.77749,-0.22699 -1.32735,-0.45275 -1.58339,-0.61583 l -0.0493,-0.0302 -0.0561,-0.0234 c -0.53975,-0.20685 -1.44583,-0.8638 -2.55588,-1.94498 -2.00772,-2.31794 -2.99707,-4.9463 -2.99707,-7.97864 0,-2.7868 0.83127,-5.24857 2.51453,-7.4634 2.02591,-2.34509 4.26356,-3.45864 6.84016,-3.45864 z"
               sodipodi:nodetypes="ccccsscccscccccssccscccccssscssccccsscccccscs" /><path
               id="path8"
               style="color:#000000;fill:#000000;stroke-width:1.19409;stroke-linecap:square;stroke-miterlimit:2;-inkscape-stroke:none"
               d="m 229.82167,110.41127 -0.4011,0.4017 v 25.98273 l 0.0142,0.0654 c 0.0443,0.19496 0.21583,0.38258 0.36345,0.45477 0.1476,0.0722 0.26193,0.0796 0.35913,0.0796 h 1.58338 l 0.31718,-0.46651 v -22.33094 l 12.15122,20.80988 c 0.3046,0.53873 0.54282,0.95095 0.71827,1.24091 0.0881,0.14572 0.15989,0.26117 0.22153,0.35234 0.0308,0.0456 0.0583,0.0848 0.0907,0.12589 0.0325,0.0411 0.0344,0.0756 0.1845,0.17278 l 0.14686,0.0956 h 2.50282 l 0.40295,-0.40357 v -26.17896 l -0.40295,-0.40108 h -1.77962 l -0.40355,0.40108 v 22.36551 l -11.64031,-19.91453 -0.002,-0.002 c -0.45158,-0.78105 -0.80503,-1.38673 -1.06321,-1.81665 -0.25855,-0.43058 -0.36205,-0.62144 -0.52696,-0.81884 l -0.17711,-0.21474 z" /></g></g></g></g></g></svg>
