<?xml version="1.0" encoding="UTF-8" standalone="no" ?>
<!DOCTYPE svg PUBLIC "-//W3C//DTD SVG 1.1//EN" "http://www.w3.org/Graphics/SVG/1.1/DTD/svg11.dtd">
<svg xmlns="http://www.w3.org/2000/svg" xmlns:xlink="http://www.w3.org/1999/xlink" version="1.1" width="1080" height="1080" viewBox="0 0 1080 1080" xml:space="preserve">
<desc>Created with Fabric.js 5.2.4</desc>
<defs>
</defs>
<g transform="matrix(1 0 0 1 540 540)" id="57c7b673-9dd4-4cee-a27e-96db91f256ed"  >
<rect style="stroke: none; stroke-width: 1; stroke-dasharray: none; stroke-linecap: butt; stroke-dashoffset: 0; stroke-linejoin: miter; stroke-miterlimit: 4; fill: rgb(231,231,231); fill-rule: nonzero; opacity: 1;" vector-effect="non-scaling-stroke"  x="-540" y="-540" rx="0" ry="0" width="1080" height="1080" />
</g>
<g transform="matrix(1 0 0 1 540 540)" id="c6da68fb-622a-49ac-853d-3391c0cb2418"  >
</g>
<g transform="matrix(1 0 0 1 540 540)"  >
<g style="" vector-effect="non-scaling-stroke"   >
		<g transform="matrix(1 0 0 1 0 0)" id="path1"  >
<path style="stroke: none; stroke-width: 1.21835; stroke-dasharray: none; stroke-linecap: butt; stroke-dashoffset: 0; stroke-linejoin: miter; stroke-miterlimit: 4; fill: rgb(231,231,231); fill-rule: nonzero; opacity: 1;" vector-effect="non-scaling-stroke"  transform=" translate(-400.73, -388.1)" d="M 797.57078 388.05284 L 797.47338 398.38443 L 796.4987 418.65773 L 794.45187 438.63862 L 791.43037 458.3271 L 787.4342 477.72319 L 782.5608000000001 496.72941 L 776.8102000000001 515.44322 L 770.0849300000001 533.66969 L 762.5799100000002 551.40882 L 754.1976800000001 568.75809 L 745.0357100000001 585.71748 L 735.094 601.9946 L 724.37255 617.88184 L 712.96882 633.18429 L 700.8828100000001 647.80444 L 688.0170700000001 661.93728 L 674.5665200000001 675.38783 L 660.4336800000001 688.25357 L 645.8135300000001 700.33958 L 630.5110800000001 711.74331 L 614.6238400000001 722.46476 L 598.3467200000001 732.4064699999999 L 581.3873300000001 741.5684399999999 L 564.0380600000001 749.95067 L 546.29893 757.4556899999999 L 528.07245 764.1809699999999 L 509.35865 769.9315599999999 L 490.35243 774.8049599999998 L 470.95634 778.8011299999998 L 451.26786000000004 781.8226299999998 L 431.28697000000005 783.8694599999998 L 411.01367000000005 784.8441399999998 L 400.77956000000006 784.9415399999998 L 390.44797000000005 784.8441399999998 L 370.17467000000005 783.8694599999998 L 350.19378000000006 781.8226299999998 L 330.50530000000003 778.8011299999998 L 311.10921 774.8049599999998 L 292.10299000000003 769.9315599999999 L 273.38918 764.1809699999999 L 255.16271 757.4556899999999 L 237.42358000000002 749.95067 L 220.07431000000003 741.5684399999999 L 203.11492000000004 732.4064699999999 L 186.8378 722.46476 L 170.95052 711.74331 L 155.64807 700.33958 L 141.02793 688.25357 L 126.89509 675.38783 L 113.44454 661.93728 L 100.57876 647.80444 L 88.492755 633.18429 L 77.089027 617.88184 L 66.367571 601.9946 L 56.425859 585.71748 L 47.263889 568.75809 L 38.881661 551.40882 L 31.376643 533.66969 L 24.651366 515.44322 L 18.900769 496.72941 L 14.02738 477.72319 L 10.031201 458.3271 L 7.0097005 438.63862 L 4.9628774 418.65773 L 3.9881997 398.38443 L 3.8907317 388.05284 L 3.9881997 377.81873 L 4.9628774 357.54543 L 7.0097005 337.56454 L 10.031201 317.87606000000005 L 14.027379999999999 298.47997000000004 L 18.900769 279.47375000000005 L 24.651366 260.75994000000003 L 31.376643 242.53347000000002 L 38.881661 224.79434000000003 L 47.263889 207.44507000000004 L 56.425859 190.48568000000006 L 66.367571 174.20856000000006 L 77.089027 158.32132000000007 L 88.492755 143.01887000000008 L 100.57876 128.39872000000008 L 113.4445 114.26588000000008 L 126.89505 100.81533000000007 L 141.02788999999999 87.94958600000007 L 155.64803999999998 75.86357600000007 L 170.95048999999997 64.45984600000007 L 186.83772999999997 53.738396000000066 L 203.11484999999996 43.796686000000065 L 220.07423999999997 34.63471600000007 L 237.42350999999996 26.25248600000007 L 255.16263999999995 18.747466000000067 L 273.38910999999996 12.022186000000067 L 292.10292 6.271595600000067 L 311.10913999999997 1.3981956000000668 L 330.50523 -2.5979746999999334 L 350.19371 -5.619474699999934 L 370.1746 -7.666304699999934 L 390.4479 -8.640984699999933 L 400.77949 -8.738384699999934 L 411.0136 -8.640984699999933 L 431.2869 -7.666304699999933 L 451.26779 -5.619474699999933 L 470.95627 -2.597974699999933 L 490.35236000000003 1.3981956000000673 L 509.35858 6.271595600000067 L 528.07239 12.022186000000067 L 546.29886 18.747466000000067 L 564.03799 26.25248600000007 L 581.3872600000001 34.63471600000007 L 598.3466500000001 43.796686000000065 L 614.62377 53.738396000000066 L 630.51101 64.45984600000007 L 645.8134600000001 75.86357600000007 L 660.43361 87.94958600000007 L 674.56645 100.81533000000007 L 688.017 114.26588000000007 L 700.88274 128.39872000000005 L 712.96875 143.01887000000005 L 724.37248 158.32132000000004 L 735.09393 174.20856000000003 L 745.0356400000001 190.48568000000003 L 754.19761 207.44507000000004 L 762.5798400000001 224.79434000000003 L 770.08486 242.53347000000002 L 776.81014 260.75994000000003 L 782.56073 279.47375000000005 L 787.43413 298.47997000000004 L 791.4303 317.87606000000005 L 794.4517999999999 337.5645400000001 L 796.4986299999999 357.54543000000007 L 797.47331 377.8187300000001 z" stroke-linecap="round" />
</g>
		<g transform="matrix(7.71 0 0 7.71 53.64 -62.12)" id="path242-8"  >
<linearGradient id="SVGID_linearGradient1_3" gradientUnits="userSpaceOnUse" gradientTransform="matrix(1 0 0 1 0 0)"  x1="238.03703" y1="72.67025" x2="248.83324" y2="85.263657">
<stop offset="0%" style="stop-color:rgb(255,0,0);stop-opacity: 1"/>
<stop offset="81.999999%" style="stop-color:rgb(255,255,0);stop-opacity: 1"/>
</linearGradient>
<path style="stroke: none; stroke-width: 0.264583; stroke-dasharray: none; stroke-linecap: butt; stroke-dashoffset: 0; stroke-linejoin: miter; stroke-miterlimit: 4; fill: url(#SVGID_linearGradient1_3); fill-rule: nonzero; opacity: 1;" vector-effect="non-scaling-stroke"  transform=" translate(-243.44, -78.97)" d="M 245.29842 85.263656 L 248.83323 79.141179 L 247.30962 77.18376199999999 L 245.35688 75.51165899999998 L 243.02997 74.00325599999998 L 240.18856 72.97426799999998 L 238.03704 72.67024899999998 z" stroke-linecap="round" />
</g>
		<g transform="matrix(7.71 0 0 7.71 81.21 3.51)" id="path242-9-5"  >
<linearGradient id="SVGID_linearGradient2_4" gradientUnits="userSpaceOnUse" gradientTransform="matrix(1 0 0 1 0 0)"  x1="249.97598" y1="81.188034" x2="244.64415" y2="96.946144">
<stop offset="0%" style="stop-color:rgb(255,255,0);stop-opacity: 1"/>
<stop offset="81.999999%" style="stop-color:rgb(0,255,0);stop-opacity: 1"/>
</linearGradient>
<path style="stroke: none; stroke-width: 0.264583; stroke-dasharray: none; stroke-linecap: butt; stroke-dashoffset: 0; stroke-linejoin: miter; stroke-miterlimit: 4; fill: url(#SVGID_linearGradient2_4); fill-rule: nonzero; opacity: 1;" vector-effect="non-scaling-stroke"  transform=" translate(-247.01, -87.48)" d="M 242.70311 93.773279 L 249.77274 93.773276 L 250.70611 91.475083 L 251.17782 88.947909 L 251.32068 86.178544 L 250.7911 83.203317 L 249.97863 81.188036 z" stroke-linecap="round" />
</g>
		<g transform="matrix(7.71 0 0 7.71 37.07 91.61)" id="path242-9-8-6"  >
<linearGradient id="SVGID_linearGradient3_5" gradientUnits="userSpaceOnUse" gradientTransform="matrix(1 0 0 1 0 0)"  x1="248.55453" y1="95.847" x2="234.01764" y2="101.96948">
<stop offset="0%" style="stop-color:rgb(0,255,0);stop-opacity: 1"/>
<stop offset="81.999999%" style="stop-color:rgb(0,255,255);stop-opacity: 1"/>
</linearGradient>
<path style="stroke: none; stroke-width: 0.264583; stroke-dasharray: none; stroke-linecap: butt; stroke-dashoffset: 0; stroke-linejoin: miter; stroke-miterlimit: 4; fill: url(#SVGID_linearGradient3_5); fill-rule: nonzero; opacity: 1;" vector-effect="non-scaling-stroke"  transform=" translate(-241.29, -98.91)" d="M 234.01764 95.847001 L 237.55246 101.96948 L 240.00943999999998 101.62870000000001 L 242.43389 100.77363000000001 L 244.90366 99.512668 L 247.21549 97.56642500000001 L 248.55453999999997 95.85516500000001 z" stroke-linecap="round" />
</g>
		<g transform="matrix(7.71 0 0 7.71 -51.88 66.61)" id="path242-9-4-4"  >
<linearGradient id="SVGID_linearGradient4_6" gradientUnits="userSpaceOnUse" gradientTransform="matrix(1 0 0 1 0 0)"  x1="235.14632" y1="101.96179" x2="224.35011" y2="89.368385">
<stop offset="0%" style="stop-color:rgb(0,255,255);stop-opacity: 1"/>
<stop offset="81.999999%" style="stop-color:rgb(0,0,255);stop-opacity: 1"/>
</linearGradient>
<path style="stroke: none; stroke-width: 0.264583; stroke-dasharray: none; stroke-linecap: butt; stroke-dashoffset: 0; stroke-linejoin: miter; stroke-miterlimit: 4; fill: url(#SVGID_linearGradient4_6); fill-rule: nonzero; opacity: 1;" vector-effect="non-scaling-stroke"  transform=" translate(-229.75, -95.67)" d="M 227.88494 89.368382 L 224.35012 95.49086199999999 L 225.87373 97.44828 L 227.82647 99.12038 L 230.15338 100.62877999999999 L 232.9948 101.65776999999999 L 235.14632 101.96178999999998 z" stroke-linecap="round" />
</g>
		<g transform="matrix(7.71 0 0 7.71 -79.88 0.2)" id="path242-9-4-9-0"  >
<linearGradient id="SVGID_linearGradient5_7" gradientUnits="userSpaceOnUse" gradientTransform="matrix(1 0 0 1 0 0)"  x1="223.16046" y1="93.344269" x2="228.98593" y2="77.642395">
<stop offset="0%" style="stop-color:rgb(0,0,255);stop-opacity: 1"/>
<stop offset="81.999999%" style="stop-color:rgb(255,0,255);stop-opacity: 1"/>
</linearGradient>
<path style="stroke: none; stroke-width: 0.264583; stroke-dasharray: none; stroke-linecap: butt; stroke-dashoffset: 0; stroke-linejoin: miter; stroke-miterlimit: 4; fill: url(#SVGID_linearGradient5_7); fill-rule: nonzero; opacity: 1;" vector-effect="non-scaling-stroke"  transform=" translate(-226.12, -87.05)" d="M 230.4246 80.759024 L 223.35496 80.75901999999999 L 222.42159 83.05721399999999 L 221.94988 85.58438699999999 L 221.80702 88.35374999999999 L 222.3366 91.32898699999998 L 223.14907 93.34426799999999 z" stroke-linecap="round" />
</g>
		<g transform="matrix(7.71 0 0 7.71 -34.2 -88.19)" id="path242-9-4-9-5-1"  >
<linearGradient id="SVGID_linearGradient6_8" gradientUnits="userSpaceOnUse" gradientTransform="matrix(1 0 0 1 0 0)"  x1="224.77254" y1="78.646576" x2="239.30943" y2="72.524086">
<stop offset="0%" style="stop-color:rgb(255,0,255);stop-opacity: 1"/>
<stop offset="81.999999%" style="stop-color:rgb(255,0,0);stop-opacity: 1"/>
</linearGradient>
<path style="stroke: none; stroke-width: 0.264583; stroke-dasharray: none; stroke-linecap: butt; stroke-dashoffset: 0; stroke-linejoin: miter; stroke-miterlimit: 4; fill: url(#SVGID_linearGradient6_8); fill-rule: nonzero; opacity: 1;" vector-effect="non-scaling-stroke"  transform=" translate(-232.04, -75.59)" d="M 239.30944 78.646576 L 235.77462 72.524086 L 233.31765 72.86486099999999 L 230.89318999999998 73.71993499999999 L 228.42342999999997 74.98089599999999 L 226.11157999999998 76.92714399999998 L 224.77253 78.63840399999998 z" stroke-linecap="round" />
</g>
		<g transform="matrix(7.71 0 0 7.71 0 0)" id="path253-6"  >
<radialGradient id="SVGID_radialGradient255-0_9" gradientUnits="userSpaceOnUse" gradientTransform="matrix(1 0 0 1 -236.48 -87.03)"  cx="236.47733" cy="87.025101" r="16.007292" fx="236.47733" fy="87.025101">
<stop offset="24.921136%" style="stop-color:rgb(255,255,255);stop-opacity: 1"/>
<stop offset="100%" style="stop-color:rgb(255,255,255);stop-opacity: 0"/>
</radialGradient>
<circle style="stroke: none; stroke-width: 0.1; stroke-dasharray: none; stroke-linecap: butt; stroke-dashoffset: 0; stroke-linejoin: miter; stroke-miterlimit: 4; fill: url(#SVGID_radialGradient255-0_9); fill-rule: nonzero; opacity: 1;" vector-effect="non-scaling-stroke"  cx="0" cy="0" r="16.007292" />
</g>
		<g transform="matrix(1 0 0 1 -27.42 -21.87)" id="path2-1-1-5"  >
<path style="stroke: none; stroke-width: 1.27052; stroke-dasharray: none; stroke-linecap: butt; stroke-dashoffset: 0; stroke-linejoin: miter; stroke-miterlimit: 4; fill: rgb(0,0,0); fill-rule: nonzero; opacity: 1;" vector-effect="non-scaling-stroke"  transform=" translate(-369.42, -539.37)" d="M 397.52684 382.9963 L 387.87009 383.09991 L 368.35352 384.42253 L 358.59717 385.64158 L 348.83688 387.16339 L 329.42377 391.02767 L 310.11435 396.31417 L 290.80084 402.81971 L 281.2477 406.58042 L 271.69456 410.5443 L 252.58426000000003 419.48793 L 233.57758000000004 429.55101 L 214.67050000000003 440.83313000000004 L 205.22089000000003 446.93232000000006 L 195.86695000000003 453.13111000000004 L 177.06340000000003 466.64814 L 158.36346000000003 481.08144 L 139.65951000000004 496.53062 L 130.40919000000005 504.66155 L 121.16279000000006 512.99565 L 102.56238000000006 530.3769699999999 L 84.06164200000006 548.77415 L 65.66444200000007 567.98403 L 56.41804500000006 577.84393 L 84.46799200000007 577.84393 L 99.41120200000006 562.39476 L 121.66874000000006 540.54363 L 136.50833000000006 526.61626 L 143.93014000000005 520.01112 L 153.07701000000006 512.08336 L 171.16739000000007 497.04053999999996 L 189.26185000000007 483.01358 L 207.35223000000008 470.0025 L 216.39942000000008 464.00688 L 225.5462200000001 458.21444 L 243.6406800000001 447.43826 L 261.7311400000001 437.78153000000003 L 279.8255200000001 429.34783000000004 L 288.8687100000001 425.58712 L 297.9159800000001 422.02959000000004 L 316.1099700000001 415.9304 L 334.20042000000007 410.95065 L 352.29481000000004 407.28954 L 361.34200000000004 405.9709 L 370.38526 404.85145 L 388.47965 403.63241 L 397.52684 403.5288 L 406.67364 403.63241 L 424.76408999999995 404.85145 L 433.81128999999993 406.07049 L 442.85847999999993 407.49271 L 460.94893999999994 411.45659 L 479.04331999999994 416.94627 L 497.23337999999995 423.95775000000003 L 506.28056999999995 428.12480000000005 L 515.32777 432.49902000000003 L 533.41822 442.76128000000006 L 551.51261 454.5533300000001 L 569.7066 468.0703500000001 L 578.74986 475.4921700000001 L 587.79705 483.2167600000001 L 605.89152 500.19173000000006 L 623.98189 518.8916800000001 L 642.07636 539.3206 L 651.22315 550.29995 L 652.7449300000001 552.23209 L 654.3743300000001 554.26383 L 646.2433700000001 561.17572 L 638.2120100000002 567.78085 L 629.3680300000002 574.8959199999999 L 611.6839200000002 588.62011 L 594.0994100000001 601.52762 L 576.5149800000002 613.41926 L 567.7744600000002 619.0085300000001 L 559.1336100000002 624.39462 L 541.7523200000002 634.4577 L 524.4745600000001 643.4053100000001 L 507.2964000000001 651.3330700000001 L 498.65957000000014 654.7870200000001 L 494.49248000000017 656.4124100000001 L 490.22186000000016 657.9382100000001 L 495.9147300000002 652.2453600000001 L 503.9420900000002 642.4890400000002 L 511.0571400000002 631.9160300000002 L 517.3595100000002 620.5343200000002 L 522.3392900000002 608.5391000000002 L 526.3031600000003 596.2411200000001 L 528.9484000000002 583.1304300000002 L 530.2670400000002 569.7130000000002 L 530.3703400000002 562.9046900000002 L 530.2670400000002 555.9928000000002 L 528.9484000000002 542.5753600000003 L 526.3031600000003 529.7674500000003 L 522.3392900000002 517.1627100000003 L 517.3595100000002 505.2710700000003 L 511.05714000000023 493.9889500000003 L 503.94209000000023 483.41993000000025 L 495.91473000000025 473.56003000000027 L 486.76794000000024 464.4132300000003 L 477.00765000000024 456.2823000000003 L 466.43860000000024 449.2668300000003 L 455.05292000000026 443.0680300000003 L 443.16129000000024 437.9847100000003 L 430.76372000000026 434.12440000000026 L 417.7525700000003 431.47916000000026 L 404.3351500000003 430.1605300000003 L 397.5268400000003 430.0569200000003 L 390.61492000000027 430.1605300000003 L 377.29711000000026 431.47916000000026 L 364.38965000000024 434.12440000000026 L 351.78485000000023 437.9847100000003 L 339.8932200000002 443.0680300000003 L 328.7146900000002 449.2668300000003 L 318.1417100000002 456.2823000000003 L 308.1822100000002 464.4132300000003 L 299.2385500000002 473.56003000000027 L 291.2071900000002 483.41993000000025 L 283.8890000000002 493.9889500000003 L 277.7897800000002 505.2710700000003 L 272.81007000000017 517.1627100000003 L 268.84619000000015 529.7674500000003 L 266.20489000000015 542.5753600000003 L 264.88232000000016 555.9928000000002 L 264.7828200000002 562.9046900000002 L 264.88232000000016 569.7130000000002 L 266.20489000000015 583.1304300000002 L 268.84619000000015 596.2411200000001 L 272.81007000000017 608.5391000000002 L 277.7897800000002 620.5343200000002 L 283.8890000000002 631.9160300000002 L 291.2071900000002 642.4890400000002 L 299.2385500000002 652.2453600000001 L 308.1822100000002 661.2925200000001 L 318.1417100000002 669.42348 L 328.7146900000002 676.53854 L 339.8932200000002 682.63776 L 351.78485000000023 687.7210799999999 L 364.38965000000024 691.58134 L 377.29711000000026 694.22264 L 387.87009000000023 695.34208 L 392.44353000000024 695.64891 L 397.1164900000002 695.74831 L 397.52276000000023 695.74831 L 397.92903000000024 695.74831 L 402.60608000000025 695.64891 L 407.17943000000025 695.34208 L 413.88814000000025 695.13856 L 427.1024200000002 694.1227299999999 L 433.8111300000002 693.20643 L 442.8543900000002 691.8877799999999 L 460.94878000000017 688.2267199999999 L 479.0392400000002 683.3465399999999 L 497.23323000000016 677.3509199999999 L 506.28042000000016 673.7933999999999 L 515.3276100000002 670.1362699999999 L 533.4180700000002 661.7981599999998 L 551.5124500000002 652.3486199999999 L 569.7064400000002 641.9787999999999 L 578.7497000000002 636.2899399999999 L 587.7969000000002 630.5970799999999 L 605.8873500000002 618.1955199999999 L 623.9817400000002 604.9812599999999 L 642.0721900000002 590.9543099999999 L 651.2230000000002 583.6360599999998 L 659.0471400000001 577.1345099999999 L 666.9748900000001 570.4257899999999 L 674.69951 563.8166699999999 L 682.4240500000001 557.0083599999999 L 676.1257 548.77384 L 669.82333 540.8460799999999 L 668.4010800000001 539.1171099999999 L 666.9748900000001 537.2885499999999 L 657.7284900000001 526.1100099999999 L 639.0245500000001 504.9679899999999 L 620.2210800000001 485.5549399999999 L 601.3179300000002 467.97044999999986 L 591.8643800000002 459.8395199999999 L 582.4108400000002 452.0113499999999 L 563.3005500000003 437.7812199999999 L 544.0906500000003 425.2800699999999 L 524.6776200000003 414.4042899999999 L 515.0208700000003 409.6277199999999 L 505.2645900000003 405.1539099999999 L 485.7479500000003 397.6324999999999 L 466.1317000000003 391.74045999999987 L 446.5154600000003 387.3702299999999 L 436.7591800000003 385.8444399999999 L 427.1024200000003 384.52181999999993 L 407.8925300000003 383.19919999999996 L 398.3393900000003 383.09959999999995 L 397.93311000000034 382.99598 z M 390.51139 450.69299 L 416.83634 496.53059 L 307.06277 496.53059 L 310.6203 491.75401 L 318.75119 482.81038 L 327.90199 474.67945000000003 L 337.75795 467.76756 L 348.33092999999997 461.77194000000003 L 359.81620999999996 456.99138000000005 L 371.70784 453.53743000000003 L 384.10943 451.40211000000005 z M 409.92442 451.19894 L 416.22678 452.01164 L 428.42516 454.86006 L 440.21325 458.82392999999996 L 451.29218000000003 464.10644999999994 L 461.66203 470.61199999999997 L 471.21517 478.03380999999996 L 480.05923 486.46752 L 487.78377 495.7179 L 491.23776 500.69764 L 464.81320999999997 546.53922 z M 296.90007 512.89603 L 296.90007 513.09917 L 349.65351000000004 513.09917 L 294.76480000000004 608.3358599999999 L 292.32671000000005 602.5434199999999 L 288.66557000000006 590.9545599999999 L 286.3310200000001 579.0629099999999 L 285.2115800000001 566.8684999999999 L 285.5145500000001 554.5705199999999 L 287.04034000000007 542.5752999999999 L 289.9883000000001 530.4804899999998 L 294.25900000000007 518.6884399999998 z M 500.48809000000006 517.67261 L 502.7230400000001 522.8555299999999 L 506.28057000000007 533.7313099999999 L 508.61906000000005 545.2165899999999 L 509.94171000000006 556.9050599999999 L 509.94171000000006 563.0042599999999 L 509.94171000000006 569.6133799999999 L 508.3123100000001 582.7240599999999 L 505.3682800000001 595.3287999999999 L 500.9940400000001 607.2204399999999 L 498.3528200000001 613.01289 L 498.3528200000001 612.80967 L 445.60331000000014 612.80967 z M 330.54329000000007 579.5728799999999 L 385.42807000000005 674.70993 L 379.12964000000005 673.89724 L 366.7281300000001 671.25201 L 355.1392400000001 667.0849900000001 L 344.0603100000001 661.8024700000001 L 333.6944700000001 655.5001000000001 L 324.0377200000001 648.0782800000001 L 315.2972700000001 639.64458 L 307.4691200000001 630.19102 L 304.0151300000001 625.21128 z M 488.2897200000001 629.3783299999999 L 484.6325900000001 634.3580799999999 L 476.3980900000001 643.3017099999998 L 467.25130000000007 651.2294699999999 L 457.49494000000004 658.1413599999998 L 446.82236000000006 664.1369499999998 L 435.5402900000001 668.9135199999998 L 423.6485800000001 672.3714499999999 L 411.0438600000001 674.7099299999999 L 404.7415000000001 675.2156499999999 L 378.3130200000001 629.4776999999999 z" stroke-linecap="round" />
</g>
		<g transform="matrix(1 0 0 1 -22.03 -38.08)" id="path9-3-9"  >
<radialGradient id="SVGID_radialGradient257-8_10" gradientUnits="userSpaceOnUse" gradientTransform="matrix(7.71 0 0 7.75 -1426.19 -112.8)"  cx="233.61945" cy="82.085693" r="1.538945" fx="233.61945" fy="82.085693">
<stop offset="50.157731999999996%" style="stop-color:rgb(255,255,255);stop-opacity: 1"/>
<stop offset="100%" style="stop-color:rgb(255,255,255);stop-opacity: 0"/>
</radialGradient>
<path style="stroke: none; stroke-width: 1.47563; stroke-dasharray: none; stroke-linecap: butt; stroke-dashoffset: 0; stroke-linejoin: miter; stroke-miterlimit: 4; fill: url(#SVGID_radialGradient257-8_10); fill-rule: nonzero; opacity: 1;" vector-effect="non-scaling-stroke"  transform=" translate(-374.81, -523.16)" d="M 386.67209 523.16151 L 386.55414 525.52251 L 384.78351000000004 529.89036 L 381.47807000000006 533.07771 L 377.22819000000004 534.84846 L 374.86719000000005 535.08459 L 372.38825 534.84846 L 368.13836000000003 533.07771 L 364.95110000000005 529.89036 L 363.0622200000001 525.52251 L 362.9442700000001 523.16151 L 363.0622200000001 520.68245 L 364.95110000000005 516.43266 L 368.13836000000003 513.24531 L 372.38825 511.47456 L 374.86719000000005 511.23843 L 377.22819000000004 511.47456 L 381.47807000000006 513.24531 L 384.78351000000004 516.43266 L 386.55414 520.68245 z" stroke-linecap="round" />
</g>
</g>
</g>
</svg>