<svg xmlns="http://www.w3.org/2000/svg" xmlns:xlink="http://www.w3.org/1999/xlink" id="Layer_1" x="0px" y="0px" viewBox="0 0 123.8 52.4" style="enable-background:new 0 0 123.8 52.4;" xml:space="preserve" class="site-logo replaced-svg">
	
	<g>
		<defs>
			<rect id="SVGID_1_" width="123.8" height="52.4"></rect>
		</defs>
		<clipPath id="SVGID_2_">
			<use xlink:href="#SVGID_1_" style="overflow:visible;"></use>
		</clipPath>
		<path class="st0" d="M103.6,43.4c-5.9,0-9.4-3.4-9.4-8.4c0-5,3.5-8.4,9.4-8.4S113,30,113,35C113,39.9,109.4,43.4,103.6,43.4    M73.5,39.2c0,4.1-4.3,6.2-8.9,6.2c-2.6,0-5.6-1.2-5.6-3.6c0-4.5,8-4.8,11.6-4.8h2.9V39.2z M40.2,40.6c-2,2.3-4.5,4-8.4,4   c-4.5,0-7.9-2.5-8.9-6.4h25.5c-0.5,1.1-0.8,2.4-0.8,4c0,1.3,0.3,2.6,0.7,3.7L40.2,40.6z M31.3,25c4.2,0,7.3,2.9,7.2,6.3H23   C23.3,28,26.1,25,31.3,25 M112,0v22h-0.2c-2.7-3.2-7.2-4.4-12.1-4.4c-8,0-13.7,4.6-16.1,10.7c-1.5-7-6-10.7-16.8-10.7   c-6.2,0-12.5,1.8-16.8,5.3l6.3,5.6c2.5-2.5,5.7-4,9.6-4c4.1,0,7.5,2.3,7.5,5.9c-7.4,0-18.3,0.1-23.2,5.1V35   c0-10.6-6.9-17.4-17.9-17.4c-10.1,0-18.5,5-20.6,13.1V0H0v51.5h11.8V39.2c2.2,8.1,10.5,13.1,20.6,13.1c6.1,0,12.3-2.4,16-6.5   c1.9,4.3,7.1,6.5,12.8,6.5c4.8,0,9.5-1.4,12.1-5h0.2v4.2h10.8v-8.2c2.9,5.6,8.9,9.1,16.9,9.1c5.3,0,9.9-2.8,11.7-5.2h0.2v4.4h10.8   V0H112z"></path>
	</g>
	</svg>